<?xml version="1.0" encoding="UTF-8"?> <svg xmlns="http://www.w3.org/2000/svg" width="342" height="116" viewBox="0 0 342 116" fill="none"><path d="M30.5374 115.211C27.0608 114.065 23.7613 110.823 21.4252 106.257C20.8847 105.201 20.4424 104.259 20.4424 104.164C20.4424 103.896 22.0703 103 22.1463 103.226C22.1821 103.334 22.6423 104.111 23.1692 104.955C27.1254 111.284 32.5403 111.98 35.1058 106.489C35.8255 104.948 36.1688 103.527 36.5824 100.383C37.1745 95.8804 38.0878 90.3644 38.4971 88.8218C39.644 84.4986 42.1013 81.0872 48.2538 75.2731C53.6077 70.2137 56.1883 66.2769 56.4901 62.7064C56.551 61.9874 56.5431 61.3989 56.4729 61.3989C56.4026 61.3989 55.822 61.8591 55.1826 62.4218C54.5432 62.9853 53.0493 64.1716 51.8637 65.059C48.8251 67.3335 47.5104 68.5055 46.6108 69.7435C46.1814 70.3341 45.7736 70.818 45.7047 70.818C45.6352 70.818 45.2453 69.8173 44.8388 68.5937C44.2553 66.8425 44.0969 66.1106 44.0933 65.1486C44.0869 63.7064 44.3435 63.1329 45.8108 61.3115C47.7154 58.9467 48.6932 56.3159 48.6946 53.5497C48.6968 50.605 47.4029 48.0402 43.6259 43.4998C41.9428 41.4769 37.0677 36.2814 36.8527 36.2814C36.7824 36.2814 36.7444 37.439 36.7688 38.8541C36.8699 44.7327 35.7409 49.2201 32.5374 55.6736C30.4923 59.794 30.0615 60.7868 29.2443 63.267C28.3834 65.8819 28.1124 67.322 27.9977 69.8897L27.8945 72.1886L27.1375 72.9312C26.7211 73.3398 26.3354 73.6294 26.2802 73.5742C26.0379 73.3312 25.8229 69.8223 25.9139 67.5909C26.0817 63.4827 27.0515 59.8061 29.4335 54.2472C33.9409 43.727 35.1108 39.8203 34.8692 36.0886C34.7689 34.5424 34.6291 34.0599 33.085 29.9145C31.7689 26.3799 32.141 22.9298 34.1846 19.7141C34.7029 18.8991 34.7653 18.6941 34.6104 18.3192C34.5101 18.0769 34.1108 17.1594 33.7223 16.2798C32.5302 13.5802 32.2349 12.1731 32.2256 9.15744C32.217 6.36039 32.4256 5.18264 33.2506 3.38055C33.966 1.81643 35.9545 0 36.9502 0C37.6548 0 37.5487 0.298199 36.5824 1.02721C34.5294 2.5777 33.7947 5.26866 34.4972 8.66928C35.2262 12.1982 36.677 14.6956 41.4841 20.6955C52.8407 34.8692 58.5524 43.1808 63.0311 52.0515C65.8798 57.6929 67.0281 60.642 68.2102 65.3515C69.4273 70.1987 69.8166 74.2201 69.4653 78.3181C68.7012 87.2347 65.1278 93.4546 58.9911 96.5484C54.774 98.6753 49.2401 99.0337 44.2797 97.5011C42.4826 96.9463 42.5385 97.0703 42.9579 94.5729C43.3736 92.0948 43.6733 91.1278 44.0123 91.1651C44.1442 91.1801 44.998 91.3264 45.909 91.4905C49.9412 92.2181 54.293 91.3192 57.5962 89.077C58.6628 88.3523 60.6082 86.4706 61.548 85.2556C63.1609 83.1689 64.4461 80.4084 65.2009 77.4106C65.7572 75.2021 65.9687 70.6926 65.626 68.3478C65.363 66.5486 64.4447 63.4878 63.411 60.9624C59.7882 52.1139 53.4744 42.6353 39.8261 25.5534C39.2125 24.7864 38.0835 23.3147 37.3157 22.2832C36.5487 21.2517 35.8627 20.408 35.7925 20.408C35.5574 20.408 34.7689 21.7556 34.4714 22.6639C34.2606 23.3083 34.2004 23.9398 34.2563 24.9097C34.4076 27.5196 35.5065 29.1483 41.0146 34.923C44.3757 38.4469 46.2761 40.7393 47.9527 43.2926C51.068 48.0387 52.1927 52.7863 51.134 56.7202C51.03 57.1066 50.9784 57.4564 51.02 57.498C51.2558 57.7331 54.6142 54.6866 55.6256 53.3196C55.969 52.8558 56.3138 52.5461 56.3962 52.6286C56.6077 52.84 57.703 57.2693 58.1101 59.5581C58.6757 62.7415 58.8714 65.0182 58.7631 67.1751C58.6477 69.4919 58.3273 70.6295 57.1467 72.9111C55.9439 75.2372 54.3482 77.1899 49.7247 81.994C45.1521 86.7444 43.5392 88.715 42.9622 90.2576C42.3866 91.7973 41.6977 95.6252 41.2977 99.5111C40.7106 105.219 40.1501 109.176 39.7279 110.604C39.0971 112.734 37.9838 114.183 36.3681 114.978C35.3423 115.483 35.0176 115.554 33.5388 115.599C32.1352 115.641 31.655 115.579 30.5374 115.211V115.211ZM48.0495 107.955C46.7291 107.301 45.775 105.869 44.77 103.034C44.4173 102.041 44.3399 101.621 44.4804 101.481C44.7815 101.179 45.1184 101.567 45.5377 102.697C46.0632 104.115 46.6287 105.043 47.1427 105.332C47.524 105.545 47.6574 105.546 48.0997 105.335C48.5118 105.138 48.6237 104.963 48.6667 104.438C48.7692 103.206 49.4459 103.848 49.9899 105.692C50.3727 106.988 50.3476 107.223 49.7598 107.81C49.1527 108.418 49.0093 108.43 48.0495 107.955ZM34.1244 103.266L30.2529 100.1L26.549 104.629L30.4206 107.795L34.1244 103.266ZM23.3097 29.1619C23.3097 31.0607 24.8824 32.6729 26.82 32.6729C27.6902 32.6729 28.4852 32.3525 29.0988 31.8277L29.5568 31.5009L29.4859 32.7159C29.3955 34.313 28.7956 35.533 27.311 37.1365C25.706 38.8698 24.1434 39.9931 19.0475 43.0726C12.0849 47.2803 9.72013 48.9362 7.2134 51.3584C3.99127 54.4708 1.74402 58.2427 0.759822 62.1946C-0.584942 67.5909 -0.15413 72.7792 2.12752 78.754C2.77983 80.4629 2.79202 80.5597 2.89094 83.4642C3.15258 91.1823 5.08873 96.4925 9.09363 100.476C11.128 102.5 12.9889 103.463 15.4167 103.763C16.0239 103.838 16.9106 103.869 17.3902 103.829C23.2058 103.337 25.7476 98.5254 26.9949 85.6441C27.1569 83.9653 27.3777 82.3424 27.4852 82.0356C27.6178 81.66 28.7662 80.4901 31.017 78.4328C34.5603 75.1957 35.2685 74.2745 35.2692 72.9219C35.2692 72.0861 34.5567 67.0984 34.4133 66.9371C34.3502 66.8661 33.9474 67.2912 33.5194 67.8797C32.8033 68.8632 30.5202 71.0825 27.5339 73.6961C25.5763 75.4093 25.2107 76.3096 24.5469 81.0328C23.39 89.2648 21.9212 93.6044 19.456 96.0717C17.1787 98.3513 13.4734 98.9269 10.5603 97.4509C7.59976 95.9506 5.40771 91.4525 5.14177 86.3423L5.03855 84.3359L6.38475 85.5953C8.17681 87.2691 9.63411 87.9989 11.1925 87.9989C12.6613 87.9996 13.1444 87.8562 13.9071 87.1867C15.0289 86.2018 15.5587 84.6241 15.5587 82.2592C15.5587 77.5347 13.0233 71.871 10.2549 70.4202C9.13807 69.8345 7.64994 69.8911 6.58116 70.5564C5.54893 71.1986 4.53032 72.6079 4.00274 74.1319C3.78626 74.757 3.53178 75.306 3.43573 75.3526C3.11387 75.5103 2.80922 73.3678 2.80349 70.9047C2.79919 69.0955 2.89381 68.003 3.16334 66.6862C4.17119 61.7631 6.11809 58.2535 9.966 54.4163C12.5688 51.82 15.2562 49.7749 21.2768 45.8094C25.9311 42.7436 27.9196 41.0877 29.0221 39.3666C29.5088 38.6068 29.6077 38.5272 29.6543 38.8541C29.8206 40.0182 28.4149 43.6238 25.1849 50.3225C22.5377 55.8113 21.709 57.7288 20.3772 61.4097C18.6976 66.0533 17.6561 70.1965 17.0468 74.6552C16.6568 77.5096 16.5185 83.3947 16.7579 87.143C16.9708 90.4805 17.7091 95.709 18.0059 96.0065C18.1256 96.1255 18.3701 95.99 18.7693 95.5814L19.3636 94.9764L19.0475 93.0575C17.879 85.9832 18.322 78.4307 20.3607 70.6818C21.8022 65.2017 23.5319 60.8333 27.6379 52.3282C31.255 44.836 31.9037 42.3027 31.7317 36.2814C31.5883 31.2858 30.926 28.3698 29.5948 26.8895C28.8672 26.0802 28.0974 25.6573 27.0816 25.6573C24.6136 25.6573 23.3097 27.2601 23.3097 29.1619V29.1619ZM35.0033 95.3836L31.1324 92.2174L27.4279 96.747L31.2994 99.9132L35.0033 95.3836ZM35.2527 91.8152C33.0384 89.6899 30.8313 86.5817 29.2314 83.3345L28.5655 81.984L29.3375 81.1976C29.7618 80.7654 30.197 80.4113 30.3052 80.4113C30.4134 80.4113 30.8084 80.8629 31.184 81.4141C32.0241 82.6492 34.9301 85.6764 36.5394 86.9932C37.6003 87.8612 37.7207 88.0204 37.6154 88.4211C37.5501 88.6684 37.3136 89.7637 37.0892 90.854C36.8649 91.945 36.6412 92.8776 36.5917 92.9263C36.543 92.9751 35.9402 92.4754 35.2527 91.8152V91.8152ZM58.8384 82.5704L54.3353 80.3926L51.8185 85.5982L56.3216 87.7752L58.8384 82.5704ZM10.2491 76.2472C10.5868 76.2558 10.9093 76.3404 11.214 76.4974C11.8448 76.8236 12.7702 78.2099 12.7681 78.8307C12.7666 79.0758 12.533 79.6787 12.2498 80.1719C11.8484 80.8715 11.5351 81.1675 10.8219 81.5231C9.60902 82.1281 8.1596 82.1481 6.92452 81.5725C5.58835 80.9496 5.54248 80.8342 6.13386 79.5826C7.11806 77.5017 8.78683 76.2071 10.2491 76.2472V76.2472ZM44.0761 73.1276L39.5737 70.9506L37.057 76.1555L41.5593 78.3325L44.0761 73.1276ZM11.6527 64.558C11.0205 63.8978 10.8484 63.0591 11.0369 61.5552C11.1459 60.6929 11.381 59.9667 11.8312 59.1115C12.9817 56.9216 16.6052 53.7375 16.6052 54.916C16.6052 54.9848 15.8691 55.7984 14.9687 56.7238C12.5365 59.2241 11.7394 61.0584 12.6061 62.1602C13.2118 62.9301 14.3379 62.7086 14.3379 61.819C14.3379 61.3258 14.9164 60.6068 15.1816 60.771C15.4526 60.938 15.4368 61.5165 15.1357 62.5186C14.4648 64.7465 12.7788 65.7336 11.6527 64.558V64.558ZM35.8018 62.1401C35.3581 60.5445 35.4936 60.3258 39.7838 55.6995C41.5472 53.797 43.2138 51.9368 43.4869 51.5648C44.0202 50.8401 44.0446 50.8559 44.3127 52.0945C44.4331 52.6508 44.4037 52.964 44.1865 53.4422C44.031 53.7841 42.4511 55.6471 40.6762 57.5818C38.9014 59.5158 37.1745 61.4756 36.839 61.9365C36.5029 62.3975 36.1731 62.7795 36.1057 62.7845C36.0384 62.7896 35.9014 62.5 35.8018 62.1401V62.1401ZM25.7777 35.1388C25.7777 37.0642 24.1928 38.6491 22.2674 38.6491C20.3413 38.6491 18.7571 37.0642 18.7571 35.1388C18.7571 33.2134 20.3413 31.6285 22.2674 31.6285C24.1928 31.6285 25.7777 33.2134 25.7777 35.1388Z" fill="#13191E"></path><path fill-rule="evenodd" clip-rule="evenodd" d="M149.98 60.2671V93.7901C149.98 93.7901 150.517 98.957 146.973 102.834C142.05 108.22 133.273 103.682 133.273 103.682L135.142 96.8675C135.142 96.8675 136.24 97.6373 137.779 97.6373C139.83 97.6373 141.846 95.3894 141.846 92.8009L141.736 60.2671H149.98ZM223.606 60.3467H244.497V67.2067H231.635V73.5986H242.47V80.2242H231.557V86.3825H245.51V93.0862H223.606V60.3467ZM252.76 60.3467H273.651V67.2067H260.789V73.5986H271.624V80.2242H260.711V86.3825H274.664V93.0862H252.76V60.3467ZM215.733 68.6095L203.884 85.9925H216.045V93.0862H192.893V84.8234L204.976 67.2067H193.361V60.3467H215.733V68.6095ZM89.1486 60.3144H98.3828L109.616 92.9285H100.692L99.0494 87.0878H88.1415L86.1587 92.9285H77.7145L89.1486 60.3144ZM297.353 60.3459C302.382 60.3459 305.301 64.811 305.301 69.3321C305.301 73.8531 303.038 75.2351 303.038 75.2351C303.038 75.2351 301.504 76.491 300.25 77.3576C301.423 77.3576 302.496 79.9912 302.496 79.9912L307.563 92.9285L299.134 92.9134C299.134 92.9134 295.217 82.7417 294.223 81.5568C293.379 80.5511 292.02 80.7661 290.101 80.7661V92.9285H281.921V60.3459H297.353ZM166.702 60.3144H175.936L187.169 92.9285H178.245L176.603 87.0878H165.695L163.712 92.9285H155.268L166.702 60.3144ZM321.533 60.3144H330.767L342 92.9285H333.076L331.433 87.0878H320.526L318.543 92.9285H310.098L321.533 60.3144ZM115.409 60.3467H123.438V85.9925H133.884V92.8525H115.331L115.409 60.3467ZM96.7097 79.5267L93.6266 69.8589L90.5278 79.5267H96.7097ZM174.263 79.5267L171.18 69.8589L168.081 79.5267H174.263ZM329.094 79.5267L326.011 69.8589L322.912 79.5267H329.094ZM294.006 67.302H290.055V73.7319H294.068C295.57 73.7319 296.981 72.2366 296.981 70.5406C296.981 68.8439 295.48 67.3027 294.006 67.302Z" fill="#13191E"></path></svg> 