<?xml version="1.0" encoding="utf-8"?>
<!-- Generator: Adobe Illustrator 16.0.0, SVG Export Plug-In . SVG Version: 6.00 Build 0)  -->
<!DOCTYPE svg PUBLIC "-//W3C//DTD SVG 1.1//EN" "http://www.w3.org/Graphics/SVG/1.1/DTD/svg11.dtd">
<svg version="1.1" id="Layer_1" xmlns="http://www.w3.org/2000/svg" xmlns:xlink="http://www.w3.org/1999/xlink" x="0px" y="0px"
	 width="1000.408px" height="534.06px" viewBox="0 0 1000.408 534.06" enable-background="new 0 0 1000.408 534.06"
	 xml:space="preserve">
<g>
	<path fill-rule="evenodd" clip-rule="evenodd" d="M677.681,278.619h65.012l94.873,246.658h-67.301l-15.888-42.003h-88.375
		l-15.888,42.003h-67.307l15.882-41.424c-30.729,39.712-78.318,41.424-78.318,41.424H403.61v-85.596
		c-15.801,55.645-67.701,94.379-129.333,94.379c-74.172,0-134.305-56.078-134.305-130.244c0-25.326,7.018-48.529,19.197-68.118
		h-43.621v189.579H49.868V335.698H0v-57.079h165.418v47.984c24.398-32.553,64.052-53.043,108.859-53.043
		c61.631,0,113.531,38.734,129.333,94.379v-89.32h108.657c0,0,111.898,2.746,111.898,118.704c0,8.649-0.521,16.698-1.461,24.226
		L677.681,278.619L677.681,278.619z M274.277,469.177c38.631,0,69.95-29.263,69.95-65.361c0-36.1-31.318-65.372-69.95-65.372
		s-69.953,29.272-69.953,65.372C204.324,439.915,235.646,469.177,274.277,469.177L274.277,469.177z M492.805,471.923
		c12.436,0,62.166-4.325,62.166-70.275s-50.814-68.107-61.084-68.107c-9.933,0-15.362,1.313-20,1.611v134.614
		C473.885,469.766,480.372,471.923,492.805,471.923L492.805,471.923z M684.82,433.811h50.735l-25.299-66.484h-0.139L684.82,433.811
		L684.82,433.811z"/>
	<polygon fill-rule="evenodd" clip-rule="evenodd" points="921.755,278.619 877.967,343.802 834.18,278.619 755.528,278.619 
		841.479,407.05 841.479,525.277 914.456,525.277 914.456,407.05 1000.408,278.619 921.755,278.619 	"/>
	<path fill-rule="evenodd" clip-rule="evenodd" d="M637.953,154.064c-85.145-8.919-77.847-68.925-77.847-68.925
		C560.106,13.783,612.815,0,647.681,0c48.65,0,80.274,24.326,80.274,24.326l-26.76,49.463c0,0-25.948-18.65-46.217-18.65
		c-20.272,0-24.325,14.594-24.325,18.65c0,4.052-2.436,14.595,33.242,24.325c25.137,6.854,70.875,19.937,72.109,66.993L796.88,9.097
		h69.063l93.25,248.354h-69.73l-15.893-41.761h-86.752l-15.888,41.761H700.39l7.871-20.418
		c-15.382,14.723-37.155,24.064-65.444,24.064c-62.438,0-95.686-34.865-95.686-34.865l29.19-51.086
		c31.624,25.137,49.468,25.137,54.332,25.137c4.863,0,26.755,4.864,32.431-18.65C668.765,158.117,637.953,154.064,637.953,154.064
		L637.953,154.064z M831.746,99.737l-25.299,62.434h48.307L831.746,99.737L831.746,99.737z"/>
	<path fill-rule="evenodd" clip-rule="evenodd" d="M446.991,261.909h-0.812c0.136,0,0.267-0.002,0.403-0.005
		C446.722,261.906,446.853,261.909,446.991,261.909L446.991,261.909z M49.627,125.683c-4.478,0-8.111,3.63-8.111,8.107
		c0,4.481,3.633,8.111,8.111,8.111h56.058c2.663,2.076,6.237,4.005,11.418,5.675c1.787,0.576,3.38,1.231,4.814,1.946H51.408
		c-4.478,0-8.107,3.63-8.107,8.107c0,4.48,3.63,8.11,8.107,8.11h81.838c0.239,2.485,0.147,5.05-0.114,7.622H61.3
		c-4.478,0-8.107,3.63-8.107,8.107c0,4.48,3.63,8.11,8.107,8.11h69.903c-0.028,2.516,0.22,5.05,0.937,7.624H73.627
		c-4.478,0-8.107,3.63-8.107,8.108c0,4.478,3.63,8.107,8.107,8.107h69.794c2.226,2.418,4.244,4.992,6.073,7.624H95.682
		c-4.478,0-8.107,3.63-8.107,8.107c0,4.478,3.63,8.108,8.107,8.108h63.035c1.371,2.849,2.541,5.439,3.561,7.621h-30.754
		c-4.478,0-8.108,3.632-8.108,8.11c0,4.477,3.63,8.107,8.108,8.107h79.464c2.251,0,4.286-0.917,5.756-2.398h197.81
		c9.486,2.018,20.109,3.18,32.03,3.205c102.595-0.225,111.095-85.137,111.095-85.137V9.097H487.94v155.509
		c0,0-0.414,36.233-41.355,36.475c-40.941-0.242-41.355-36.475-41.355-36.475V9.097H216.176c-1.406-1.184-3.205-2.613-5.189-2.613
		h-79.464c-4.478,0-8.108,3.63-8.108,8.11c0,1.487,0.428,2.863,1.128,4.063c-2.035,2.529-3.997,4.75-5.278,5.667
		c-1.028,0.733-4.78,2.793-9.684,6.001h-13.9c-4.478,0-8.107,3.629-8.107,8.107c0,2.751,1.378,5.178,3.477,6.643
		c-2.793,2.791-5.442,5.826-7.76,9.089h-9.664c-4.478,0-8.107,3.63-8.107,8.107c0,4.478,3.63,8.107,8.107,8.107h2.157
		c-0.536,2.418-0.845,4.903-0.845,7.46l0.047,0.164H61.3c-4.478,0-8.107,3.63-8.107,8.11c0,4.478,3.63,8.107,8.107,8.107h18.442
		l-2.857,7.622H51.408c-4.478,0-8.107,3.63-8.107,8.11c0,4.475,3.63,8.107,8.107,8.107h35.407c2.004,2.802,4.044,5.503,5.848,7.621
		H49.627L49.627,125.683z M139.421,141.901c2.688,2.815,5.565,5.342,8.478,7.621h146.715c2.171,0,4.13,0.864,5.586,2.251h36.514
		V139.23h-35.49c-1.481,1.631-3.6,2.671-5.973,2.671H139.421L139.421,141.901z M294.614,118.062H170.24
		c-1.117,2.66-1.598,5.4-1.773,7.621h126.784c2.137,0,4.066,0.845,5.514,2.196h35.949v-12.538h-36.08
		C299.15,116.998,297.016,118.062,294.614,118.062L294.614,118.062z M277.588,56.2h59.126V43.66h-80.829
		c-1.487,1.751-3.677,2.882-6.154,2.882h-62.229c0.598,3.071,1.292,5.631,1.916,7.624h82.844
		C274.311,54.166,276.159,54.949,277.588,56.2L277.588,56.2z M170.621,170.279c8.694,0.22,16.86,1.398,23.241,3.083h91.196
		c2.202,0,4.188,0.881,5.648,2.304h46.008v-12.541h-36.168c-1.482,1.598-3.58,2.615-5.932,2.615H168.303
		C170.082,168.322,170.621,170.279,170.621,170.279L170.621,170.279z M202.412,189.58c-1.204,2.685-2.227,5.462-2.968,7.624h72.818
		c2.229,0,4.247,0.9,5.711,2.357h64.377c-1.865-4.758-3.132-9.059-3.98-12.543h-47.423c-1.481,1.57-3.561,2.563-5.89,2.563H202.412
		L202.412,189.58z M196.283,213.419c-1.896,2.576-3.479,5.127-4.766,7.624h58.215c2.257,0,4.294,0.923,5.765,2.41H355.82
		c-3.238-4.191-5.934-8.424-8.18-12.538h-69.536c-1.476,1.537-3.541,2.504-5.842,2.504H196.283L196.283,213.419z M216.795,247.347
		h166.836c-6.701-3.747-12.444-8.013-17.379-12.543H255.533c-1.473,1.512-3.524,2.455-5.801,2.455h-63.34
		c-0.358,2.782-0.439,5.347-0.353,7.621h24.948C213.269,244.879,215.323,245.83,216.795,247.347L216.795,247.347z M336.714,32.308
		V19.762H217.188c-1.487,1.784-3.697,2.94-6.201,2.94h-34.896c0.169,3.413,0.834,6.201,1.24,7.625h72.401
		c2.018,0,3.839,0.761,5.259,1.981H336.714L336.714,32.308z M153.408,22.702c0.025,2.491,0.539,5.139,1.246,7.625h5.915
		c-1.156-2.691-1.673-5.323-1.848-7.625H153.408L153.408,22.702z M161.146,46.542c1.481,3.232,2.977,5.726,4.438,7.624h12.138
		c-0.82-3.424-1.643-5.876-2.407-7.624H161.146L161.146,46.542z M210.191,70.38l-5.08,7.625h79.947c2.079,0,3.953,0.803,5.386,2.087
		h46.27V67.554h-58.346c-1.487,1.718-3.655,2.826-6.106,2.826H210.191L210.191,70.38z M196.637,94.223
		c-2.102,2.883-4.484,5.406-7.019,7.622h104.996c2.11,0,4.014,0.825,5.453,2.143h36.647V91.446h-45.588
		c-1.487,1.687-3.638,2.776-6.067,2.776H196.637L196.637,94.223z M127.979,118.062c0.2,2.888,1.49,5.642,2.69,7.621h24.295
		c-1.145-2.91-2.863-5.473-4.897-7.621H127.979L127.979,118.062z"/>
</g>
</svg>
